PathFileType	4	(X/Y/Z)	Patient4_TMGait_0pt5_01_left_01.trc.trc
DataRate	CameraRate	NumFrames	NumMarkers	Units	OrigDataRate	OrigDataStartFrame	OrigNumFrames
74.468085106383	74.468085106383	4	33	mm	74.468085106383	124	       141
Frame#	Time	L.ASIS			Sacral			L.Shoulder			Chest			R.Shoulder			Neck			R.ASIS			R.Thigh.Superior			R.Thigh.Lateral			R.Thigh.Inferior			R.Patella			L.Thigh.Superior			L.Thigh.Lateral			L.Thigh.Inferior			L.Patella			L.Shank.Superior			L.Shank.Lateral			L.Shank.Inferior			R.Shank.Superior			R.Shank.Lateral			R.Shank.Inferior			R.Heel			R.Midfoot.Superior			R.Midfoot.Lateral			R.Toe			L.Heel			L.Midfoot.Lateral			L.Midfoot.Superior			L.Toe			L.Elbow			L.Wrist			R.Elbow			R.Wrist			
		X1	Y1	Z1	X2	Y2	Z2	X3	Y3	Z3	X4	Y4	Z4	X5	Y5	Z5	X6	Y6	Z6	X7	Y7	Z7	X8	Y8	Z8	X9	Y9	Z9	X10	Y10	Z10	X11	Y11	Z11	X12	Y12	Z12	X13	Y13	Z13	X14	Y14	Z14	X15	Y15	Z15	X16	Y16	Z16	X17	Y17	Z17	X18	Y18	Z18	X19	Y19	Z19	X20	Y20	Z20	X21	Y21	Z21	X22	Y22	Z22	X23	Y23	Z23	X24	Y24	Z24	X25	Y25	Z25	X26	Y26	Z26	X27	Y27	Z27	X28	Y28	Z28	X29	Y29	Z29	X30	Y30	Z30	X31	Y31	Z31	X32	Y32	Z32	X33	Y33	Z33	

124	2.821714285714	746.534529545564	957.493615761786	348.324432367869	553.597223209227	1005.815610845998	529.963971051612	708.670789056139	1428.868516205612	328.014034670145	830.152041185798	1356.635661857642	474.921656547206	771.411867289785	1434.612599821331	658.078495257527	727.819979130934	1490.244379166908	477.786820180837	788.611851043992	931.730035914303	620.018535901421	790.410426091546	721.296336667911	587.040852303518	694.185764403246	625.709233749693	653.347272189443	749.673086977687	562.317234545185	567.280499971394	731.673566966288	475.697614243121	571.197208343074	821.820972576257	770.196367629327	376.728667921721	763.791942804930	642.292062830555	309.058806735889	863.907071918127	581.294471468843	371.370199823200	886.873493471368	516.243344119011	372.377490059669	873.552547181466	444.617242676425	361.525503774198	812.673372879399	313.187877768376	309.822628453773	899.869513535409	217.359007999690	369.659783514879	693.017980466047	391.870919144511	579.198770077786	611.921684589689	298.074270096927	643.255039173571	635.334842657451	199.716147097139	577.426137292915	480.929333653464	43.976450835278	549.412994849317	652.689885162195	95.909168617609	584.453608768676	564.004081135396	36.087780067237	623.333946875039	772.066183219506	41.231184552631	614.126635304617	816.761175429804	39.656353661634	406.258894010384	894.651205771255	43.075415012048	329.773015355534	964.055292574557	119.674493405506	352.571611054231	1098.457745002590	90.278843597342	334.328750794601	594.157463505233	1091.543186424279	223.083995941454	608.132583155132	830.982609088292	213.157551296125	851.635457030928	1096.599195644309	761.846477200658	1087.773782799553	1057.149363122175	676.920598676846	
125	2.835142857143	749.197275172825	955.354664787510	347.182881146360	555.080040611120	1004.339940452951	527.375303060836	709.211425619296	1427.685548662789	325.893199599273	830.496796800096	1355.842936736593	473.106850688570	770.900142098665	1433.387938150131	656.132028517173	727.687499658741	1489.079116444235	475.793013052337	789.964967410255	930.930326306216	619.230604817156	790.040137495909	720.003062499239	587.104046305787	692.141487023751	625.170990782503	652.791581858088	747.767669428063	561.129365953778	567.476178685547	728.583415179811	474.509673456738	570.929534775155	824.528545123673	768.077143216044	375.749859486801	765.099621254698	639.856185875051	309.080088619602	865.796492478940	579.303573251154	370.792356475104	887.531858130635	513.219225854357	372.328153770824	873.662844061408	441.159631759918	361.686313322533	810.458749654320	310.519027430968	310.622801417477	896.088864443312	213.421091939093	370.644110558327	689.230577491602	391.081825196824	578.960375346905	607.141536090326	298.116887603869	643.172748558109	629.732068108162	199.414160968713	577.420049867925	474.237895880797	44.150420844889	549.571013955194	646.127849450177	95.875344881316	584.602248346854	557.369727818890	36.055728429455	623.393707529196	765.488628155520	40.851953318847	614.270364168700	809.012014355258	38.526852117472	407.390271589383	886.603643423904	40.522671927252	330.401858161785	958.444737935142	114.536466941219	353.864880822200	1092.046088871608	81.077366373573	334.601455169162	594.125538121446	1090.625467117645	221.199879199747	611.754499399683	829.906931434153	212.386970079967	854.777155254422	1095.120206939247	756.493952915660	1090.637475369197	1058.161731202353	669.363197023547	
126	2.848571428571	751.973448796359	953.344848687828	345.922974152071	556.626313990097	1002.935865224360	524.667919670088	709.801881243770	1426.526621980315	323.619223054813	830.889387881195	1355.150530933238	471.178879186007	770.369497482329	1432.262559812149	654.055718680931	727.556495361335	1487.986209178808	473.629244663288	791.438948465567	930.123125300524	618.301432936302	789.955743150303	718.752218643731	587.002672464591	690.430747871731	624.673480469944	652.064377874295	746.206366437118	559.986159093815	567.475387826765	725.860868874980	473.263575839897	570.493295740522	827.220072423820	766.025721907449	374.919139852573	766.765667248219	637.723261548762	308.877958918256	867.802528659654	577.474311254931	370.358481811715	888.306402388331	510.368283031378	372.307900537902	873.921823413529	437.914967608730	361.773693436224	808.552402972286	308.081854746419	311.148603185637	892.454204490195	209.732092865530	371.528750847411	685.726571192920	390.284925344505	578.595341849934	602.566166813736	298.233890323150	643.012762467171	624.255707397866	199.161685097547	577.373662418149	467.564791400322	44.491959667824	549.761685945087	639.640158961915	95.880476873877	584.756282792847	550.770980743036	36.105527329073	623.489050980948	758.964628044487	40.456275750948	614.419849325009	801.375615677980	37.565886033045	408.292322462061	878.710090987112	38.305693991658	330.859325874117	952.852454620604	109.770349928111	355.110003450881	1085.648845101113	72.450805556800	334.916003353628	594.730136211894	1089.480217756029	219.175538226103	615.942817344727	828.662362414542	211.453498098404	857.396777264283	1093.741050643176	751.434284757995	1092.941359841873	1058.267958624170	662.194784342689	
127	2.862000000000	754.756682699451	951.592285077950	344.502871424103	558.185357718565	1001.689662646568	521.880490614747	710.441335203053	1425.457546164107	321.208078555204	831.339927143244	1354.598882586709	469.131658970903	769.891708905789	1431.315897560704	651.845636775066	727.471695607358	1487.031379730918	471.300242460535	792.971708975138	929.361919035440	617.172213974943	790.158424370753	717.607870318442	586.655508526220	689.146452653268	624.235153934345	651.128105556655	745.083107492325	558.926836180448	567.213938848507	723.665127932841	471.962646237195	569.882618267429	829.840231989973	764.220800187182	374.232231929111	768.809304637487	636.031417964681	308.428904219411	869.916843193710	575.938443414689	370.039956620471	889.230882453758	507.852196522058	372.295168384343	874.356588727180	435.046769361604	361.782124719361	807.051957578653	306.041249116012	311.355896713434	889.050493215465	206.494161658746	372.284289183105	682.615664500471	389.498753084652	578.086946345405	598.284102079317	298.479420539723	642.753885564022	618.964811079692	199.007079841561	577.282051597498	460.924790097077	45.127236589302	549.983810090488	633.260170365399	95.950483937414	584.918859577124	544.210109505681	36.309085561599	623.614244590043	752.482737114882	40.037569360914	614.568053700451	794.072595725137	36.858887054901	408.964488270382	871.196946371659	36.549957240340	331.160354359509	947.389878672957	105.635321325685	356.252767847668	1079.411021640242	64.859627716083	335.256827678681	596.052589439675	1088.153700474289	217.000068642702	620.707544177875	827.304321860929	210.334574937851	859.432358049829	1092.508265491512	746.744102604821	1094.612879174182	1057.412261678939	655.520289274153	
